# xmcd CD database file
#
# Track frame offsets:
#	150
#	13631
#	31240
#	43867
#	58584
#	75437
#	91634
#	105158
#	120970
#	137066
#
# Disc length: 1990 seconds
#
# Revision: 0
# Processed by: cddbd v1.5.1PL0 Copyright (c) Steve Scherf et al.
# Submitted via: CDex 1.51
#
DISCID=6707c40a
DTITLE=Albert Babin - Le grand musicien
DYEAR=1900
DGENRE=Country
TTITLE0=Nous vivons tous deux dans une prison
TTITLE1=On est toujours des chums
TTITLE2=Un papillon
TTITLE3=Un mur entre nos coeurs
TTITLE4=Donne de joiles roses à ta maman
TTITLE5=Des roses rouges pour toi maman
TTITLE6=Le grand musicien
TTITLE7=Par hasard
TTITLE8=Votre mariage
TTITLE9=Prière d'un vieillard
EXTD=
EXTT0=
EXTT1=
EXTT2=
EXTT3=
EXTT4=
EXTT5=
EXTT6=
EXTT7=
EXTT8=
EXTT9=
PLAYORDER=
